# xmcd CD database file
#
# Track frame offsets:
#	150
#	12840
#	26056
#	40605
#	52152
#	60799
#	75299
#	88061
#	101233
#	113431
#	125994
#	138682
#	151390
#	164524
#	177168
#
# Disc length: 2507 seconds
#
# Revision: 2
# Processed by: cddbd v1.5.2PL0 Copyright (c) Steve Scherf et al.
# Submitted via: CDex 1.50beta10
#
DISCID=bf09c90f
DTITLE=Various Artist - Songs of the Wild West- CD1
DYEAR=2007
DGENRE=Country
TTITLE0=Blue Shadows on my Trail- Roy Rogers and The Sons of the Pioneers
TTITLE1=Teardrops in my Heart- Rex Allen
TTITLE2=Rye Whiskey- Tex Ritter
TTITLE3=My Love is a Rider- Girls of the Golden West
TTITLE4=Carry me back to the Lone Prairie- Carson Robinson's Buckaroos
TTITLE5=Little Joe The Wrangler- Jules Verne Allen
TTITLE6=Way Out There- The Son's of the Pioneers
TTITLE7=Roll Along Kentucky Moon- Jimmy Wakely
TTITLE8=Tumblin Tumbleweeds- The Sons of the Pioneers
TTITLE9=Jingle, Jingle, Jingle- Tex Ritter
TTITLE10=Don't Fence Me In- Roy Rogers
TTITLE11=On the Banks of the Sunny San Juan- Eddie Dean
TTITLE12=Dusky Skies- Bob Wills and His Texan Playboys
TTITLE13=Wah Hoo!- Ray Whitley
TTITLE14=Wide Rolling Plains- Rosalie Allen
EXTD=YEAR: 2007
EXTT0=
EXTT1=
EXTT2=
EXTT3=
EXTT4=
EXTT5=
EXTT6=
EXTT7=
EXTT8=
EXTT9=
EXTT10=
EXTT11=
EXTT12=
EXTT13=
EXTT14=
PLAYORDER=
